<svg xmlns="http://www.w3.org/2000/svg" width="960" height="360" viewBox="0 0 960 360" role="img" aria-label="India Life Expectancy">
  <rect width="100%" height="100%" fill="#0d1117" rx="8"/>
  <text x="62" y="30" fill="#e6edf3" font-size="18" font-family="system-ui, sans-serif" font-weight="700">India Life Expectancy</text>
  <text x="62" y="50" fill="#9da7b3" font-size="12" font-family="system-ui, sans-serif">Life expectancy at birth; World Bank indicator SP.DYN.LE00.IN</text>
  <line x1="62" y1="62.0" x2="898" y2="62.0" stroke="#263241" stroke-width="1"/><text x="50" y="66.0" text-anchor="end" fill="#9da7b3" font-size="11">72.2 years</text><line x1="62" y1="121.0" x2="898" y2="121.0" stroke="#263241" stroke-width="1"/><text x="50" y="125.0" text-anchor="end" fill="#9da7b3" font-size="11">54.2 years</text><line x1="62" y1="180.0" x2="898" y2="180.0" stroke="#263241" stroke-width="1"/><text x="50" y="184.0" text-anchor="end" fill="#9da7b3" font-size="11">36.1 years</text><line x1="62" y1="239.0" x2="898" y2="239.0" stroke="#263241" stroke-width="1"/><text x="50" y="243.0" text-anchor="end" fill="#9da7b3" font-size="11">18.1 years</text><line x1="62" y1="298.0" x2="898" y2="298.0" stroke="#263241" stroke-width="1"/><text x="50" y="302.0" text-anchor="end" fill="#9da7b3" font-size="11">0.0 years</text>
  <polygon points="62,298 62.0,149.0 75.1,148.3 88.1,147.3 101.2,146.2 114.2,145.3 127.3,149.2 140.4,148.1 153.4,147.1 166.5,141.4 179.6,140.3 192.6,139.3 205.7,138.2 218.8,137.2 231.8,135.8 244.9,133.8 257.9,132.2 271.0,130.4 284.1,128.7 297.1,126.7 310.2,124.8 323.2,122.9 336.3,121.0 349.4,119.2 362.4,117.4 375.5,115.7 388.6,114.0 401.6,112.4 414.7,110.8 427.8,109.3 440.8,107.9 453.9,106.5 466.9,105.1 480.0,103.8 493.1,102.6 506.1,101.2 519.2,99.9 532.2,98.6 545.3,97.3 558.4,95.9 571.4,94.5 584.5,93.0 597.6,91.7 610.6,90.1 623.7,88.6 636.8,87.3 649.8,85.8 662.9,84.4 675.9,83.0 689.0,81.6 702.1,80.1 715.1,78.6 728.2,77.1 741.2,75.6 754.3,74.2 767.4,72.8 780.4,71.5 793.5,70.3 806.6,69.1 819.6,67.9 832.7,66.9 845.8,68.8 858.8,78.2 871.9,63.8 884.9,62.8 898.0,62.0 898,298" fill="#ff7b72" opacity="0.16"/>
  <polyline points="62.0,149.0 75.1,148.3 88.1,147.3 101.2,146.2 114.2,145.3 127.3,149.2 140.4,148.1 153.4,147.1 166.5,141.4 179.6,140.3 192.6,139.3 205.7,138.2 218.8,137.2 231.8,135.8 244.9,133.8 257.9,132.2 271.0,130.4 284.1,128.7 297.1,126.7 310.2,124.8 323.2,122.9 336.3,121.0 349.4,119.2 362.4,117.4 375.5,115.7 388.6,114.0 401.6,112.4 414.7,110.8 427.8,109.3 440.8,107.9 453.9,106.5 466.9,105.1 480.0,103.8 493.1,102.6 506.1,101.2 519.2,99.9 532.2,98.6 545.3,97.3 558.4,95.9 571.4,94.5 584.5,93.0 597.6,91.7 610.6,90.1 623.7,88.6 636.8,87.3 649.8,85.8 662.9,84.4 675.9,83.0 689.0,81.6 702.1,80.1 715.1,78.6 728.2,77.1 741.2,75.6 754.3,74.2 767.4,72.8 780.4,71.5 793.5,70.3 806.6,69.1 819.6,67.9 832.7,66.9 845.8,68.8 858.8,78.2 871.9,63.8 884.9,62.8 898.0,62.0" fill="none" stroke="#ff7b72" stroke-width="3" stroke-linejoin="round" stroke-linecap="round"/>
  <circle cx="62.0" cy="149.0" r="3" fill="#ff7b72"/><circle cx="75.1" cy="148.3" r="3" fill="#ff7b72"/><circle cx="88.1" cy="147.3" r="3" fill="#ff7b72"/><circle cx="101.2" cy="146.2" r="3" fill="#ff7b72"/><circle cx="114.2" cy="145.3" r="3" fill="#ff7b72"/><circle cx="127.3" cy="149.2" r="3" fill="#ff7b72"/><circle cx="140.4" cy="148.1" r="3" fill="#ff7b72"/><circle cx="153.4" cy="147.1" r="3" fill="#ff7b72"/><circle cx="166.5" cy="141.4" r="3" fill="#ff7b72"/><circle cx="179.6" cy="140.3" r="3" fill="#ff7b72"/><circle cx="192.6" cy="139.3" r="3" fill="#ff7b72"/><circle cx="205.7" cy="138.2" r="3" fill="#ff7b72"/><circle cx="218.8" cy="137.2" r="3" fill="#ff7b72"/><circle cx="231.8" cy="135.8" r="3" fill="#ff7b72"/><circle cx="244.9" cy="133.8" r="3" fill="#ff7b72"/><circle cx="257.9" cy="132.2" r="3" fill="#ff7b72"/><circle cx="271.0" cy="130.4" r="3" fill="#ff7b72"/><circle cx="284.1" cy="128.7" r="3" fill="#ff7b72"/><circle cx="297.1" cy="126.7" r="3" fill="#ff7b72"/><circle cx="310.2" cy="124.8" r="3" fill="#ff7b72"/><circle cx="323.2" cy="122.9" r="3" fill="#ff7b72"/><circle cx="336.3" cy="121.0" r="3" fill="#ff7b72"/><circle cx="349.4" cy="119.2" r="3" fill="#ff7b72"/><circle cx="362.4" cy="117.4" r="3" fill="#ff7b72"/><circle cx="375.5" cy="115.7" r="3" fill="#ff7b72"/><circle cx="388.6" cy="114.0" r="3" fill="#ff7b72"/><circle cx="401.6" cy="112.4" r="3" fill="#ff7b72"/><circle cx="414.7" cy="110.8" r="3" fill="#ff7b72"/><circle cx="427.8" cy="109.3" r="3" fill="#ff7b72"/><circle cx="440.8" cy="107.9" r="3" fill="#ff7b72"/><circle cx="453.9" cy="106.5" r="3" fill="#ff7b72"/><circle cx="466.9" cy="105.1" r="3" fill="#ff7b72"/><circle cx="480.0" cy="103.8" r="3" fill="#ff7b72"/><circle cx="493.1" cy="102.6" r="3" fill="#ff7b72"/><circle cx="506.1" cy="101.2" r="3" fill="#ff7b72"/><circle cx="519.2" cy="99.9" r="3" fill="#ff7b72"/><circle cx="532.2" cy="98.6" r="3" fill="#ff7b72"/><circle cx="545.3" cy="97.3" r="3" fill="#ff7b72"/><circle cx="558.4" cy="95.9" r="3" fill="#ff7b72"/><circle cx="571.4" cy="94.5" r="3" fill="#ff7b72"/><circle cx="584.5" cy="93.0" r="3" fill="#ff7b72"/><circle cx="597.6" cy="91.7" r="3" fill="#ff7b72"/><circle cx="610.6" cy="90.1" r="3" fill="#ff7b72"/><circle cx="623.7" cy="88.6" r="3" fill="#ff7b72"/><circle cx="636.8" cy="87.3" r="3" fill="#ff7b72"/><circle cx="649.8" cy="85.8" r="3" fill="#ff7b72"/><circle cx="662.9" cy="84.4" r="3" fill="#ff7b72"/><circle cx="675.9" cy="83.0" r="3" fill="#ff7b72"/><circle cx="689.0" cy="81.6" r="3" fill="#ff7b72"/><circle cx="702.1" cy="80.1" r="3" fill="#ff7b72"/><circle cx="715.1" cy="78.6" r="3" fill="#ff7b72"/><circle cx="728.2" cy="77.1" r="3" fill="#ff7b72"/><circle cx="741.2" cy="75.6" r="3" fill="#ff7b72"/><circle cx="754.3" cy="74.2" r="3" fill="#ff7b72"/><circle cx="767.4" cy="72.8" r="3" fill="#ff7b72"/><circle cx="780.4" cy="71.5" r="3" fill="#ff7b72"/><circle cx="793.5" cy="70.3" r="3" fill="#ff7b72"/><circle cx="806.6" cy="69.1" r="3" fill="#ff7b72"/><circle cx="819.6" cy="67.9" r="3" fill="#ff7b72"/><circle cx="832.7" cy="66.9" r="3" fill="#ff7b72"/><circle cx="845.8" cy="68.8" r="3" fill="#ff7b72"/><circle cx="858.8" cy="78.2" r="3" fill="#ff7b72"/><circle cx="871.9" cy="63.8" r="3" fill="#ff7b72"/><circle cx="884.9" cy="62.8" r="3" fill="#ff7b72"/><circle cx="898.0" cy="62.0" r="3" fill="#ff7b72"/>
  <text x="62.0" y="338" text-anchor="middle" fill="#9da7b3" font-size="11">1960</text><text x="231.8" y="338" text-anchor="middle" fill="#9da7b3" font-size="11">1973</text><text x="401.6" y="338" text-anchor="middle" fill="#9da7b3" font-size="11">1986</text><text x="571.4" y="338" text-anchor="middle" fill="#9da7b3" font-size="11">1999</text><text x="741.2" y="338" text-anchor="middle" fill="#9da7b3" font-size="11">2012</text><text x="898.0" y="338" text-anchor="middle" fill="#9da7b3" font-size="11">2024</text>
</svg>