<svg xmlns="http://www.w3.org/2000/svg" width="960" height="360" viewBox="0 0 960 360" role="img" aria-label="India Broad Money">
  <rect width="100%" height="100%" fill="#0d1117" rx="8"/>
  <text x="62" y="30" fill="#e6edf3" font-size="18" font-family="system-ui, sans-serif" font-weight="700">India Broad Money</text>
  <text x="62" y="50" fill="#9da7b3" font-size="12" font-family="system-ui, sans-serif">Broad money as share of GDP; World Bank indicator FM.LBL.BMNY.GD.ZS</text>
  <line x1="62" y1="62.0" x2="898" y2="62.0" stroke="#263241" stroke-width="1"/><text x="50" y="66.0" text-anchor="end" fill="#9da7b3" font-size="11">87.7%</text><line x1="62" y1="121.0" x2="898" y2="121.0" stroke="#263241" stroke-width="1"/><text x="50" y="125.0" text-anchor="end" fill="#9da7b3" font-size="11">65.8%</text><line x1="62" y1="180.0" x2="898" y2="180.0" stroke="#263241" stroke-width="1"/><text x="50" y="184.0" text-anchor="end" fill="#9da7b3" font-size="11">43.8%</text><line x1="62" y1="239.0" x2="898" y2="239.0" stroke="#263241" stroke-width="1"/><text x="50" y="243.0" text-anchor="end" fill="#9da7b3" font-size="11">21.9%</text><line x1="62" y1="298.0" x2="898" y2="298.0" stroke="#263241" stroke-width="1"/><text x="50" y="302.0" text-anchor="end" fill="#9da7b3" font-size="11">0.0%</text>
  <polygon points="62,298 62.0,238.6 75.7,240.1 89.4,239.0 103.1,241.2 116.8,244.7 130.5,241.9 144.2,242.9 157.9,246.6 171.6,244.8 185.3,243.2 199.0,240.5 212.8,235.1 226.5,232.1 240.2,233.3 253.9,236.5 267.6,232.7 281.3,222.5 295.0,218.6 308.7,209.2 322.4,202.7 336.1,205.2 349.8,205.3 363.5,200.8 377.2,200.5 390.9,195.3 404.6,191.6 418.3,185.9 432.0,183.2 445.7,183.6 459.4,182.8 473.1,184.5 486.9,181.1 500.6,179.2 514.3,177.2 528.0,174.1 541.7,180.8 555.4,177.7 569.1,170.3 582.8,166.4 596.5,160.5 610.2,150.9 623.9,142.6 637.6,129.4 651.3,127.9 665.0,124.0 678.7,121.6 692.4,114.8 706.1,103.4 719.8,89.7 733.5,85.2 747.2,88.9 761.0,85.8 774.7,91.0 788.4,87.6 802.1,88.3 815.8,88.0 829.5,97.3 843.2,98.4 856.9,98.6 870.6,90.8 884.3,62.0 898.0,77.0 898,298" fill="#ff7b72" opacity="0.16"/>
  <polyline points="62.0,238.6 75.7,240.1 89.4,239.0 103.1,241.2 116.8,244.7 130.5,241.9 144.2,242.9 157.9,246.6 171.6,244.8 185.3,243.2 199.0,240.5 212.8,235.1 226.5,232.1 240.2,233.3 253.9,236.5 267.6,232.7 281.3,222.5 295.0,218.6 308.7,209.2 322.4,202.7 336.1,205.2 349.8,205.3 363.5,200.8 377.2,200.5 390.9,195.3 404.6,191.6 418.3,185.9 432.0,183.2 445.7,183.6 459.4,182.8 473.1,184.5 486.9,181.1 500.6,179.2 514.3,177.2 528.0,174.1 541.7,180.8 555.4,177.7 569.1,170.3 582.8,166.4 596.5,160.5 610.2,150.9 623.9,142.6 637.6,129.4 651.3,127.9 665.0,124.0 678.7,121.6 692.4,114.8 706.1,103.4 719.8,89.7 733.5,85.2 747.2,88.9 761.0,85.8 774.7,91.0 788.4,87.6 802.1,88.3 815.8,88.0 829.5,97.3 843.2,98.4 856.9,98.6 870.6,90.8 884.3,62.0 898.0,77.0" fill="none" stroke="#ff7b72" stroke-width="3" stroke-linejoin="round" stroke-linecap="round"/>
  <circle cx="62.0" cy="238.6" r="3" fill="#ff7b72"/><circle cx="75.7" cy="240.1" r="3" fill="#ff7b72"/><circle cx="89.4" cy="239.0" r="3" fill="#ff7b72"/><circle cx="103.1" cy="241.2" r="3" fill="#ff7b72"/><circle cx="116.8" cy="244.7" r="3" fill="#ff7b72"/><circle cx="130.5" cy="241.9" r="3" fill="#ff7b72"/><circle cx="144.2" cy="242.9" r="3" fill="#ff7b72"/><circle cx="157.9" cy="246.6" r="3" fill="#ff7b72"/><circle cx="171.6" cy="244.8" r="3" fill="#ff7b72"/><circle cx="185.3" cy="243.2" r="3" fill="#ff7b72"/><circle cx="199.0" cy="240.5" r="3" fill="#ff7b72"/><circle cx="212.8" cy="235.1" r="3" fill="#ff7b72"/><circle cx="226.5" cy="232.1" r="3" fill="#ff7b72"/><circle cx="240.2" cy="233.3" r="3" fill="#ff7b72"/><circle cx="253.9" cy="236.5" r="3" fill="#ff7b72"/><circle cx="267.6" cy="232.7" r="3" fill="#ff7b72"/><circle cx="281.3" cy="222.5" r="3" fill="#ff7b72"/><circle cx="295.0" cy="218.6" r="3" fill="#ff7b72"/><circle cx="308.7" cy="209.2" r="3" fill="#ff7b72"/><circle cx="322.4" cy="202.7" r="3" fill="#ff7b72"/><circle cx="336.1" cy="205.2" r="3" fill="#ff7b72"/><circle cx="349.8" cy="205.3" r="3" fill="#ff7b72"/><circle cx="363.5" cy="200.8" r="3" fill="#ff7b72"/><circle cx="377.2" cy="200.5" r="3" fill="#ff7b72"/><circle cx="390.9" cy="195.3" r="3" fill="#ff7b72"/><circle cx="404.6" cy="191.6" r="3" fill="#ff7b72"/><circle cx="418.3" cy="185.9" r="3" fill="#ff7b72"/><circle cx="432.0" cy="183.2" r="3" fill="#ff7b72"/><circle cx="445.7" cy="183.6" r="3" fill="#ff7b72"/><circle cx="459.4" cy="182.8" r="3" fill="#ff7b72"/><circle cx="473.1" cy="184.5" r="3" fill="#ff7b72"/><circle cx="486.9" cy="181.1" r="3" fill="#ff7b72"/><circle cx="500.6" cy="179.2" r="3" fill="#ff7b72"/><circle cx="514.3" cy="177.2" r="3" fill="#ff7b72"/><circle cx="528.0" cy="174.1" r="3" fill="#ff7b72"/><circle cx="541.7" cy="180.8" r="3" fill="#ff7b72"/><circle cx="555.4" cy="177.7" r="3" fill="#ff7b72"/><circle cx="569.1" cy="170.3" r="3" fill="#ff7b72"/><circle cx="582.8" cy="166.4" r="3" fill="#ff7b72"/><circle cx="596.5" cy="160.5" r="3" fill="#ff7b72"/><circle cx="610.2" cy="150.9" r="3" fill="#ff7b72"/><circle cx="623.9" cy="142.6" r="3" fill="#ff7b72"/><circle cx="637.6" cy="129.4" r="3" fill="#ff7b72"/><circle cx="651.3" cy="127.9" r="3" fill="#ff7b72"/><circle cx="665.0" cy="124.0" r="3" fill="#ff7b72"/><circle cx="678.7" cy="121.6" r="3" fill="#ff7b72"/><circle cx="692.4" cy="114.8" r="3" fill="#ff7b72"/><circle cx="706.1" cy="103.4" r="3" fill="#ff7b72"/><circle cx="719.8" cy="89.7" r="3" fill="#ff7b72"/><circle cx="733.5" cy="85.2" r="3" fill="#ff7b72"/><circle cx="747.2" cy="88.9" r="3" fill="#ff7b72"/><circle cx="761.0" cy="85.8" r="3" fill="#ff7b72"/><circle cx="774.7" cy="91.0" r="3" fill="#ff7b72"/><circle cx="788.4" cy="87.6" r="3" fill="#ff7b72"/><circle cx="802.1" cy="88.3" r="3" fill="#ff7b72"/><circle cx="815.8" cy="88.0" r="3" fill="#ff7b72"/><circle cx="829.5" cy="97.3" r="3" fill="#ff7b72"/><circle cx="843.2" cy="98.4" r="3" fill="#ff7b72"/><circle cx="856.9" cy="98.6" r="3" fill="#ff7b72"/><circle cx="870.6" cy="90.8" r="3" fill="#ff7b72"/><circle cx="884.3" cy="62.0" r="3" fill="#ff7b72"/><circle cx="898.0" cy="77.0" r="3" fill="#ff7b72"/>
  <text x="62.0" y="338" text-anchor="middle" fill="#9da7b3" font-size="11">1960</text><text x="226.5" y="338" text-anchor="middle" fill="#9da7b3" font-size="11">1972</text><text x="390.9" y="338" text-anchor="middle" fill="#9da7b3" font-size="11">1984</text><text x="555.4" y="338" text-anchor="middle" fill="#9da7b3" font-size="11">1996</text><text x="719.8" y="338" text-anchor="middle" fill="#9da7b3" font-size="11">2008</text><text x="884.3" y="338" text-anchor="middle" fill="#9da7b3" font-size="11">2020</text><text x="898.0" y="338" text-anchor="middle" fill="#9da7b3" font-size="11">2021</text>
</svg>