<svg xmlns="http://www.w3.org/2000/svg" width="960" height="360" viewBox="0 0 960 360" role="img" aria-label="India Foreign Exchange Reserves">
  <rect width="100%" height="100%" fill="#0d1117" rx="8"/>
  <text x="62" y="30" fill="#e6edf3" font-size="18" font-family="system-ui, sans-serif" font-weight="700">India Foreign Exchange Reserves</text>
  <text x="62" y="50" fill="#9da7b3" font-size="12" font-family="system-ui, sans-serif">Total reserves including gold; World Bank indicator FI.RES.TOTL.CD</text>
  <line x1="62" y1="62.0" x2="898" y2="62.0" stroke="#263241" stroke-width="1"/><text x="50" y="66.0" text-anchor="end" fill="#9da7b3" font-size="11">700073798240.7</text><line x1="62" y1="121.0" x2="898" y2="121.0" stroke="#263241" stroke-width="1"/><text x="50" y="125.0" text-anchor="end" fill="#9da7b3" font-size="11">525055348680.5</text><line x1="62" y1="180.0" x2="898" y2="180.0" stroke="#263241" stroke-width="1"/><text x="50" y="184.0" text-anchor="end" fill="#9da7b3" font-size="11">350036899120.4</text><line x1="62" y1="239.0" x2="898" y2="239.0" stroke="#263241" stroke-width="1"/><text x="50" y="243.0" text-anchor="end" fill="#9da7b3" font-size="11">175018449560.2</text><line x1="62" y1="298.0" x2="898" y2="298.0" stroke="#263241" stroke-width="1"/><text x="50" y="302.0" text-anchor="end" fill="#9da7b3" font-size="11">0.0</text>
  <polygon points="62,298 62.0,297.8 74.9,297.8 87.7,297.8 100.6,297.8 113.4,297.8 126.3,297.8 139.2,297.8 152.0,297.8 164.9,297.8 177.8,297.7 190.6,297.7 203.5,297.6 216.3,297.5 229.2,297.5 242.1,297.2 254.9,297.3 267.8,296.7 280.6,295.9 293.5,295.2 306.4,294.0 319.2,294.0 332.1,295.3 345.0,295.2 357.8,295.2 370.7,295.1 383.5,294.8 396.4,294.5 409.3,294.1 422.1,294.9 435.0,295.3 447.8,296.1 460.7,295.4 473.6,294.8 486.4,293.1 499.3,289.8 512.2,290.3 525.0,289.6 537.9,288.4 550.7,287.7 563.6,285.9 576.5,284.2 589.3,281.5 602.2,273.9 615.0,263.0 627.9,253.6 640.8,251.5 653.6,238.0 666.5,204.8 679.4,211.2 692.2,202.0 705.1,196.7 717.9,197.3 730.8,196.7 743.7,197.5 756.5,188.4 769.4,178.9 782.2,176.1 795.1,158.9 808.0,163.4 820.8,141.8 833.7,99.0 846.6,82.8 859.4,106.8 872.3,86.4 885.1,81.2 898.0,62.0 898,298" fill="#63b3ed" opacity="0.16"/>
  <polyline points="62.0,297.8 74.9,297.8 87.7,297.8 100.6,297.8 113.4,297.8 126.3,297.8 139.2,297.8 152.0,297.8 164.9,297.8 177.8,297.7 190.6,297.7 203.5,297.6 216.3,297.5 229.2,297.5 242.1,297.2 254.9,297.3 267.8,296.7 280.6,295.9 293.5,295.2 306.4,294.0 319.2,294.0 332.1,295.3 345.0,295.2 357.8,295.2 370.7,295.1 383.5,294.8 396.4,294.5 409.3,294.1 422.1,294.9 435.0,295.3 447.8,296.1 460.7,295.4 473.6,294.8 486.4,293.1 499.3,289.8 512.2,290.3 525.0,289.6 537.9,288.4 550.7,287.7 563.6,285.9 576.5,284.2 589.3,281.5 602.2,273.9 615.0,263.0 627.9,253.6 640.8,251.5 653.6,238.0 666.5,204.8 679.4,211.2 692.2,202.0 705.1,196.7 717.9,197.3 730.8,196.7 743.7,197.5 756.5,188.4 769.4,178.9 782.2,176.1 795.1,158.9 808.0,163.4 820.8,141.8 833.7,99.0 846.6,82.8 859.4,106.8 872.3,86.4 885.1,81.2 898.0,62.0" fill="none" stroke="#63b3ed" stroke-width="3" stroke-linejoin="round" stroke-linecap="round"/>
  <circle cx="62.0" cy="297.8" r="3" fill="#63b3ed"/><circle cx="74.9" cy="297.8" r="3" fill="#63b3ed"/><circle cx="87.7" cy="297.8" r="3" fill="#63b3ed"/><circle cx="100.6" cy="297.8" r="3" fill="#63b3ed"/><circle cx="113.4" cy="297.8" r="3" fill="#63b3ed"/><circle cx="126.3" cy="297.8" r="3" fill="#63b3ed"/><circle cx="139.2" cy="297.8" r="3" fill="#63b3ed"/><circle cx="152.0" cy="297.8" r="3" fill="#63b3ed"/><circle cx="164.9" cy="297.8" r="3" fill="#63b3ed"/><circle cx="177.8" cy="297.7" r="3" fill="#63b3ed"/><circle cx="190.6" cy="297.7" r="3" fill="#63b3ed"/><circle cx="203.5" cy="297.6" r="3" fill="#63b3ed"/><circle cx="216.3" cy="297.5" r="3" fill="#63b3ed"/><circle cx="229.2" cy="297.5" r="3" fill="#63b3ed"/><circle cx="242.1" cy="297.2" r="3" fill="#63b3ed"/><circle cx="254.9" cy="297.3" r="3" fill="#63b3ed"/><circle cx="267.8" cy="296.7" r="3" fill="#63b3ed"/><circle cx="280.6" cy="295.9" r="3" fill="#63b3ed"/><circle cx="293.5" cy="295.2" r="3" fill="#63b3ed"/><circle cx="306.4" cy="294.0" r="3" fill="#63b3ed"/><circle cx="319.2" cy="294.0" r="3" fill="#63b3ed"/><circle cx="332.1" cy="295.3" r="3" fill="#63b3ed"/><circle cx="345.0" cy="295.2" r="3" fill="#63b3ed"/><circle cx="357.8" cy="295.2" r="3" fill="#63b3ed"/><circle cx="370.7" cy="295.1" r="3" fill="#63b3ed"/><circle cx="383.5" cy="294.8" r="3" fill="#63b3ed"/><circle cx="396.4" cy="294.5" r="3" fill="#63b3ed"/><circle cx="409.3" cy="294.1" r="3" fill="#63b3ed"/><circle cx="422.1" cy="294.9" r="3" fill="#63b3ed"/><circle cx="435.0" cy="295.3" r="3" fill="#63b3ed"/><circle cx="447.8" cy="296.1" r="3" fill="#63b3ed"/><circle cx="460.7" cy="295.4" r="3" fill="#63b3ed"/><circle cx="473.6" cy="294.8" r="3" fill="#63b3ed"/><circle cx="486.4" cy="293.1" r="3" fill="#63b3ed"/><circle cx="499.3" cy="289.8" r="3" fill="#63b3ed"/><circle cx="512.2" cy="290.3" r="3" fill="#63b3ed"/><circle cx="525.0" cy="289.6" r="3" fill="#63b3ed"/><circle cx="537.9" cy="288.4" r="3" fill="#63b3ed"/><circle cx="550.7" cy="287.7" r="3" fill="#63b3ed"/><circle cx="563.6" cy="285.9" r="3" fill="#63b3ed"/><circle cx="576.5" cy="284.2" r="3" fill="#63b3ed"/><circle cx="589.3" cy="281.5" r="3" fill="#63b3ed"/><circle cx="602.2" cy="273.9" r="3" fill="#63b3ed"/><circle cx="615.0" cy="263.0" r="3" fill="#63b3ed"/><circle cx="627.9" cy="253.6" r="3" fill="#63b3ed"/><circle cx="640.8" cy="251.5" r="3" fill="#63b3ed"/><circle cx="653.6" cy="238.0" r="3" fill="#63b3ed"/><circle cx="666.5" cy="204.8" r="3" fill="#63b3ed"/><circle cx="679.4" cy="211.2" r="3" fill="#63b3ed"/><circle cx="692.2" cy="202.0" r="3" fill="#63b3ed"/><circle cx="705.1" cy="196.7" r="3" fill="#63b3ed"/><circle cx="717.9" cy="197.3" r="3" fill="#63b3ed"/><circle cx="730.8" cy="196.7" r="3" fill="#63b3ed"/><circle cx="743.7" cy="197.5" r="3" fill="#63b3ed"/><circle cx="756.5" cy="188.4" r="3" fill="#63b3ed"/><circle cx="769.4" cy="178.9" r="3" fill="#63b3ed"/><circle cx="782.2" cy="176.1" r="3" fill="#63b3ed"/><circle cx="795.1" cy="158.9" r="3" fill="#63b3ed"/><circle cx="808.0" cy="163.4" r="3" fill="#63b3ed"/><circle cx="820.8" cy="141.8" r="3" fill="#63b3ed"/><circle cx="833.7" cy="99.0" r="3" fill="#63b3ed"/><circle cx="846.6" cy="82.8" r="3" fill="#63b3ed"/><circle cx="859.4" cy="106.8" r="3" fill="#63b3ed"/><circle cx="872.3" cy="86.4" r="3" fill="#63b3ed"/><circle cx="885.1" cy="81.2" r="3" fill="#63b3ed"/><circle cx="898.0" cy="62.0" r="3" fill="#63b3ed"/>
  <text x="62.0" y="338" text-anchor="middle" fill="#9da7b3" font-size="11">1960</text><text x="229.2" y="338" text-anchor="middle" fill="#9da7b3" font-size="11">1973</text><text x="396.4" y="338" text-anchor="middle" fill="#9da7b3" font-size="11">1986</text><text x="563.6" y="338" text-anchor="middle" fill="#9da7b3" font-size="11">1999</text><text x="730.8" y="338" text-anchor="middle" fill="#9da7b3" font-size="11">2012</text><text x="898.0" y="338" text-anchor="middle" fill="#9da7b3" font-size="11">2025</text>
</svg>