<svg xmlns="http://www.w3.org/2000/svg" width="960" height="360" viewBox="0 0 960 360" role="img" aria-label="India Current Account Balance">
  <rect width="100%" height="100%" fill="#0d1117" rx="8"/>
  <text x="62" y="30" fill="#e6edf3" font-size="18" font-family="system-ui, sans-serif" font-weight="700">India Current Account Balance</text>
  <text x="62" y="50" fill="#9da7b3" font-size="12" font-family="system-ui, sans-serif">Current account balance as share of GDP; World Bank indicator BN.CAB.XOKA.GD.ZS</text>
  <line x1="62" y1="62.0" x2="898" y2="62.0" stroke="#263241" stroke-width="1"/><text x="50" y="66.0" text-anchor="end" fill="#9da7b3" font-size="11">1.2%</text><line x1="62" y1="121.0" x2="898" y2="121.0" stroke="#263241" stroke-width="1"/><text x="50" y="125.0" text-anchor="end" fill="#9da7b3" font-size="11">-0.3%</text><line x1="62" y1="180.0" x2="898" y2="180.0" stroke="#263241" stroke-width="1"/><text x="50" y="184.0" text-anchor="end" fill="#9da7b3" font-size="11">-1.9%</text><line x1="62" y1="239.0" x2="898" y2="239.0" stroke="#263241" stroke-width="1"/><text x="50" y="243.0" text-anchor="end" fill="#9da7b3" font-size="11">-3.4%</text><line x1="62" y1="298.0" x2="898" y2="298.0" stroke="#263241" stroke-width="1"/><text x="50" y="302.0" text-anchor="end" fill="#9da7b3" font-size="11">-5.0%</text>
  <polygon points="62,298 62.0,238.3 121.7,298.0 181.4,208.6 241.1,159.1 300.9,148.8 360.6,128.4 420.3,162.9 480.0,200.3 539.7,148.1 599.4,62.0 659.1,148.3 718.9,200.5 778.6,142.9 838.3,140.6 898.0,124.2 898,298" fill="#56d364" opacity="0.16"/>
  <polyline points="62.0,238.3 121.7,298.0 181.4,208.6 241.1,159.1 300.9,148.8 360.6,128.4 420.3,162.9 480.0,200.3 539.7,148.1 599.4,62.0 659.1,148.3 718.9,200.5 778.6,142.9 838.3,140.6 898.0,124.2" fill="none" stroke="#56d364" stroke-width="3" stroke-linejoin="round" stroke-linecap="round"/>
  <circle cx="62.0" cy="238.3" r="3" fill="#56d364"/><circle cx="121.7" cy="298.0" r="3" fill="#56d364"/><circle cx="181.4" cy="208.6" r="3" fill="#56d364"/><circle cx="241.1" cy="159.1" r="3" fill="#56d364"/><circle cx="300.9" cy="148.8" r="3" fill="#56d364"/><circle cx="360.6" cy="128.4" r="3" fill="#56d364"/><circle cx="420.3" cy="162.9" r="3" fill="#56d364"/><circle cx="480.0" cy="200.3" r="3" fill="#56d364"/><circle cx="539.7" cy="148.1" r="3" fill="#56d364"/><circle cx="599.4" cy="62.0" r="3" fill="#56d364"/><circle cx="659.1" cy="148.3" r="3" fill="#56d364"/><circle cx="718.9" cy="200.5" r="3" fill="#56d364"/><circle cx="778.6" cy="142.9" r="3" fill="#56d364"/><circle cx="838.3" cy="140.6" r="3" fill="#56d364"/><circle cx="898.0" cy="124.2" r="3" fill="#56d364"/>
  <text x="62.0" y="338" text-anchor="middle" fill="#9da7b3" font-size="11">2011</text><text x="241.1" y="338" text-anchor="middle" fill="#9da7b3" font-size="11">2014</text><text x="420.3" y="338" text-anchor="middle" fill="#9da7b3" font-size="11">2017</text><text x="599.4" y="338" text-anchor="middle" fill="#9da7b3" font-size="11">2020</text><text x="778.6" y="338" text-anchor="middle" fill="#9da7b3" font-size="11">2023</text><text x="898.0" y="338" text-anchor="middle" fill="#9da7b3" font-size="11">2025</text>
</svg>